<svg width="266" height="208" viewBox="0 0 266 208" fill="none" xmlns="http://www.w3.org/2000/svg">
<g filter="url(#filter0_d)">
<rect x="41.3229" y="41.6618" width="182.566" height="124.357" rx="14.5524" fill="white" stroke="#D9D9D9" stroke-width="2.64589"/>
<path fill-rule="evenodd" clip-rule="evenodd" d="M90.6956 84.489C89.141 86.3512 86.6536 87.8199 84.1663 87.6101C83.8554 85.0923 85.0731 82.417 86.4982 80.7647C88.0528 78.8501 90.7733 77.4863 92.9756 77.3813C93.2347 80.0041 92.2243 82.5744 90.6956 84.489ZM92.9495 88.1084C90.7582 87.9807 88.7587 88.7755 87.1437 89.4174C86.1044 89.8305 85.2242 90.1803 84.5547 90.1803C83.8033 90.1803 82.8869 89.8118 81.8579 89.398L81.8579 89.398L81.8579 89.398C80.5096 88.8558 78.9682 88.236 77.3517 88.2657C73.6466 88.3182 70.2006 90.4426 68.3092 93.826C64.4227 100.593 67.2987 110.612 71.0556 116.119C72.8952 118.847 75.0976 121.837 77.9995 121.732C79.2761 121.683 80.1945 121.289 81.1449 120.881C82.2391 120.411 83.3758 119.922 85.1506 119.922C86.8639 119.922 87.9509 120.398 88.9943 120.854C89.9864 121.288 90.9392 121.705 92.3535 121.68C95.3591 121.627 97.2505 118.952 99.0901 116.224C101.075 113.297 101.948 110.44 102.08 110.006L102.08 110.006L102.089 109.978L102.096 109.956C102.095 109.955 102.094 109.954 102.092 109.953L102.088 109.951L102.079 109.947L102.071 109.943L102.025 109.921C101.361 109.614 96.2887 107.263 96.24 100.96C96.1912 95.6692 100.263 92.9886 100.904 92.5666C100.943 92.5409 100.97 92.5236 100.982 92.5146C98.3906 88.6329 94.3486 88.2133 92.9495 88.1084ZM113.755 121.391V80.5027H128.913C136.737 80.5027 142.204 85.958 142.204 93.9312C142.204 101.904 136.634 107.412 128.705 107.412H120.026V121.391H113.755ZM120.025 85.8526H127.254C132.695 85.8526 135.804 88.7901 135.804 93.9569C135.804 99.1237 132.695 102.087 127.228 102.087H120.025V85.8526ZM162.907 116.487C161.248 119.686 157.595 121.706 153.657 121.706C147.827 121.706 143.759 118.191 143.759 112.893C143.759 107.648 147.698 104.632 154.978 104.186L162.803 103.714V101.458C162.803 98.1272 160.653 96.3175 156.818 96.3175C153.657 96.3175 151.351 97.9698 150.884 100.488H145.236C145.418 95.1897 150.34 91.3343 156.999 91.3343C164.176 91.3343 168.84 95.1373 168.84 101.038V121.391H163.036V116.487H162.907ZM155.341 116.854C151.998 116.854 149.874 115.228 149.874 112.736C149.874 110.166 151.92 108.671 155.833 108.435L162.803 107.989V110.297C162.803 114.127 159.59 116.854 155.341 116.854ZM188.091 122.991C185.578 130.151 182.702 132.512 176.587 132.512C176.12 132.512 174.566 132.459 174.203 132.354V127.45C174.592 127.502 175.55 127.555 176.043 127.555C178.815 127.555 180.37 126.374 181.328 123.306L181.898 121.496L171.275 91.7277H177.83L185.215 115.883H185.344L192.729 91.7277H199.102L188.091 122.991Z" fill="black"/>
</g>
<defs>
<filter id="filter0_d" x="0" y="0.338867" width="265.212" height="207.002" filterUnits="userSpaceOnUse" color-interpolation-filters="sRGB">
<feFlood flood-opacity="0" result="BackgroundImageFix"/>
<feColorMatrix in="SourceAlpha" type="matrix" values="0 0 0 0 0 0 0 0 0 0 0 0 0 0 0 0 0 0 127 0" result="hardAlpha"/>
<feOffset/>
<feGaussianBlur stdDeviation="20"/>
<feColorMatrix type="matrix" values="0 0 0 0 0 0 0 0 0 0 0 0 0 0 0 0 0 0 0.08 0"/>
<feBlend mode="normal" in2="BackgroundImageFix" result="effect1_dropShadow"/>
<feBlend mode="normal" in="SourceGraphic" in2="effect1_dropShadow" result="shape"/>
</filter>
</defs>
</svg>
