<svg width="267" height="208" viewBox="0 0 267 208" fill="none" xmlns="http://www.w3.org/2000/svg">
<g filter="url(#filter0_d)">
<rect x="42.2565" y="41.7736" width="182.566" height="124.357" rx="14.5524" fill="white" stroke="#D9D9D9" stroke-width="2.64589"/>
<path fill-rule="evenodd" clip-rule="evenodd" d="M128.407 123.839V107.853H136.658C140.039 107.853 142.893 106.72 145.219 104.485L145.777 103.919C150.027 99.2931 149.748 92.0867 145.219 87.8069C142.955 85.5412 139.853 84.3139 136.658 84.3768H123.413V123.839H128.407ZM128.408 103.007V89.2232H136.784C138.583 89.2232 140.29 89.9155 141.562 91.1743C144.261 93.8177 144.323 98.2233 141.717 100.961C140.445 102.314 138.645 103.07 136.784 103.007H128.408ZM169.072 98.947C166.932 96.9644 164.016 95.9574 160.325 95.9574C155.579 95.9574 152.012 97.7197 149.655 101.213L154.059 104.013C155.672 101.622 157.874 100.426 160.666 100.426C162.434 100.426 164.14 101.087 165.474 102.283C166.777 103.416 167.521 105.052 167.521 106.783V107.947C165.598 106.877 163.179 106.311 160.201 106.311C156.727 106.311 153.935 107.129 151.857 108.797C149.779 110.465 148.724 112.667 148.724 115.468C148.662 118.017 149.748 120.44 151.671 122.077C153.625 123.839 156.106 124.72 159.022 124.72C162.465 124.72 165.195 123.178 167.273 120.094H167.49V123.839H172.267V107.192C172.267 103.699 171.212 100.93 169.072 98.947ZM155.518 118.867C154.494 118.112 153.874 116.884 153.874 115.563C153.874 114.084 154.556 112.856 155.89 111.881C157.255 110.905 158.961 110.402 160.978 110.402C163.77 110.37 165.942 111 167.493 112.258C167.493 114.398 166.655 116.255 165.011 117.828C163.522 119.339 161.505 120.188 159.396 120.188C158 120.22 156.635 119.748 155.518 118.867ZM182.999 135.703L199.687 96.8385H194.259L186.535 116.223H186.442L178.533 96.8385H173.104L184.054 122.108L177.85 135.703H182.999Z" fill="#3C4043"/>
<path d="M111.167 104.391C111.167 102.849 111.042 101.307 110.794 99.7964H89.7331V108.513H101.799C101.303 111.314 99.6899 113.832 97.3325 115.405V121.069H104.529C108.747 117.136 111.167 111.314 111.167 104.391Z" fill="#4285F4"/>
<path d="M89.7341 126.545C95.7516 126.545 100.839 124.531 104.53 121.07L97.3335 115.405C95.3173 116.79 92.7428 117.576 89.7341 117.576C83.9027 117.576 78.9708 113.58 77.2028 108.23H69.7895V114.083C73.5737 121.73 81.2972 126.545 89.7341 126.545Z" fill="#34A853"/>
<path d="M77.2035 108.23C76.2728 105.43 76.2728 102.377 77.2035 99.5449V93.7231H69.789C66.5936 100.111 66.5936 107.664 69.789 114.052L77.2035 108.23Z" fill="#FBBC04"/>
<path d="M89.7341 90.1988C92.9289 90.1358 95.9997 91.3631 98.2951 93.5974L104.685 87.1148C100.621 83.2756 95.2863 81.1672 89.7341 81.2301C81.2972 81.2301 73.5737 86.0763 69.7895 93.7233L77.2028 99.5765C78.9708 94.1953 83.9027 90.1988 89.7341 90.1988Z" fill="#EA4335"/>
</g>
<defs>
<filter id="filter0_d" x="0.933594" y="0.450684" width="265.212" height="207.002" filterUnits="userSpaceOnUse" color-interpolation-filters="sRGB">
<feFlood flood-opacity="0" result="BackgroundImageFix"/>
<feColorMatrix in="SourceAlpha" type="matrix" values="0 0 0 0 0 0 0 0 0 0 0 0 0 0 0 0 0 0 127 0" result="hardAlpha"/>
<feOffset/>
<feGaussianBlur stdDeviation="20"/>
<feColorMatrix type="matrix" values="0 0 0 0 0 0 0 0 0 0 0 0 0 0 0 0 0 0 0.08 0"/>
<feBlend mode="normal" in2="BackgroundImageFix" result="effect1_dropShadow"/>
<feBlend mode="normal" in="SourceGraphic" in2="effect1_dropShadow" result="shape"/>
</filter>
</defs>
</svg>
