<svg width="266" height="208" viewBox="0 0 266 208" fill="none" xmlns="http://www.w3.org/2000/svg">
    <g filter="url(#filter0_d)">
        <rect x="41.3933" y="41.3229" width="182.566" height="124.357" rx="14.5524" fill="#FEB4C7" stroke="#D9D9D9"
            stroke-width="2.64589" />
        <path fill-rule="evenodd" clip-rule="evenodd"
            d="M87.5888 87.626H80.2159C80.2159 93.8386 77.4376 99.5408 72.5935 103.271L69.6724 105.52L80.9905 121.387H90.296L79.882 106.787C84.8184 101.734 87.5888 94.9347 87.5888 87.626ZM99.6094 121.376H92.4922V87.6324H99.6094V121.376ZM121.113 98.0343V99.5275C119.193 98.1806 116.875 97.3891 114.375 97.3891C107.758 97.3891 102.394 102.903 102.394 109.706C102.394 116.508 107.758 122.022 114.375 122.022C116.875 122.022 119.193 121.231 121.113 119.884V121.376H127.911V98.0343H121.113ZM121.092 109.706C121.092 113.023 118.335 115.712 114.933 115.712C111.531 115.712 108.773 113.023 108.773 109.706C108.773 106.389 111.531 103.701 114.933 103.701C118.335 103.701 121.092 106.389 121.092 109.706ZM192.828 99.5275V98.0343H199.626V121.376H192.828V119.884C190.908 121.231 188.59 122.022 186.09 122.022C179.473 122.022 174.109 116.508 174.109 109.706C174.109 102.903 179.473 97.3891 186.09 97.3891C188.59 97.3891 190.908 98.1806 192.828 99.5275ZM186.648 115.712C190.05 115.712 192.807 113.023 192.807 109.706C192.807 106.389 190.05 103.701 186.648 103.701C183.246 103.701 180.488 106.389 180.488 109.706C180.488 113.023 183.246 115.712 186.648 115.712ZM202.576 117.483C202.576 115.061 204.486 113.097 206.842 113.097C209.198 113.097 211.108 115.061 211.108 117.483C211.108 119.905 209.198 121.868 206.842 121.868C204.486 121.868 202.576 119.905 202.576 117.483ZM162.03 97.4066C159.314 97.4066 156.744 98.2733 155.026 100.664V98.0358H148.258V121.376H155.109V109.11C155.109 105.561 157.425 103.822 160.212 103.822C163.2 103.822 164.917 105.657 164.917 109.062V121.376H171.707V106.533C171.707 101.101 167.506 97.4066 162.03 97.4066ZM138.427 98.0345V101.075C139.789 99.251 142.328 98.0358 145.089 98.0358V104.828C145.076 104.828 145.063 104.827 145.051 104.826L145.029 104.825C145.022 104.825 145.015 104.825 145.008 104.825C142.318 104.825 138.442 106.801 138.442 110.478V121.376H131.467V98.0345H138.427ZM68.7738 121.386H61.2374V87.626H68.7738V121.386Z"
            fill="#17120F" />
    </g>
    <defs>
        <filter id="filter0_d" x="0.0703125" y="0" width="265.212" height="207.002" filterUnits="userSpaceOnUse"
            color-interpolation-filters="sRGB">
            <feFlood flood-opacity="0" result="BackgroundImageFix" />
            <feColorMatrix in="SourceAlpha" type="matrix" values="0 0 0 0 0 0 0 0 0 0 0 0 0 0 0 0 0 0 127 0"
                result="hardAlpha" />
            <feOffset />
            <feGaussianBlur stdDeviation="20" />
            <feColorMatrix type="matrix" values="0 0 0 0 0 0 0 0 0 0 0 0 0 0 0 0 0 0 0.08 0" />
            <feBlend mode="normal" in2="BackgroundImageFix" result="effect1_dropShadow" />
            <feBlend mode="normal" in="SourceGraphic" in2="effect1_dropShadow" result="shape" />
        </filter>
    </defs>
</svg>