<svg width="267" height="208" viewBox="0 0 267 208" fill="none" xmlns="http://www.w3.org/2000/svg">
<g filter="url(#filter0_d)">
<rect x="42.2565" y="41.8063" width="182.566" height="124.357" rx="14.5524" fill="white" stroke="#D9D9D9" stroke-width="2.64589"/>
<path fill-rule="evenodd" clip-rule="evenodd" d="M120.543 138.108L121.746 130.439L119.067 130.376H106.277L115.166 73.7883C115.193 73.6169 115.283 73.4578 115.414 73.3447C115.545 73.2315 115.712 73.1694 115.888 73.1694H137.454C144.614 73.1694 149.555 74.6651 152.134 77.6176C153.344 79.0026 154.114 80.4504 154.487 82.0431C154.878 83.7146 154.884 85.7114 154.503 88.1472L154.475 88.3244V89.8854L155.685 90.5734C156.703 91.1159 157.512 91.7367 158.133 92.4473C159.167 93.6319 159.837 95.1373 160.119 96.9213C160.412 98.7564 160.315 100.941 159.837 103.413C159.285 106.257 158.393 108.735 157.188 110.761C156.08 112.629 154.668 114.178 152.992 115.378C151.392 116.519 149.491 117.384 147.341 117.939C145.257 118.483 142.882 118.758 140.277 118.758H138.599C137.399 118.758 136.233 119.192 135.318 119.97C134.401 120.764 133.794 121.849 133.608 123.035L133.481 123.726L131.356 137.242L131.26 137.738C131.235 137.895 131.191 137.974 131.126 138.027C131.069 138.075 130.987 138.108 130.906 138.108H120.543Z" fill="#28356A"/>
<path fill-rule="evenodd" clip-rule="evenodd" d="M156.831 88.5039C156.767 88.9171 156.693 89.3393 156.611 89.7732C153.767 104.435 144.036 109.5 131.609 109.5H125.282C123.762 109.5 122.481 110.608 122.245 112.113L118.087 138.589C117.933 139.578 118.692 140.468 119.685 140.468H130.908C132.236 140.468 133.365 139.499 133.575 138.183L133.685 137.611L135.798 124.147L135.934 123.409C136.14 122.088 137.272 121.118 138.601 121.118H140.279C151.152 121.118 159.664 116.686 162.152 103.86C163.19 98.502 162.653 94.028 159.903 90.8815C159.071 89.9329 158.038 89.1454 156.831 88.5039Z" fill="#298FC2"/>
<path fill-rule="evenodd" clip-rule="evenodd" d="M153.854 87.3132C153.42 87.1858 152.971 87.0707 152.512 86.9666C152.049 86.8651 151.576 86.7752 151.088 86.6964C149.382 86.4196 147.513 86.2883 145.511 86.2883H128.607C128.19 86.2883 127.795 86.3827 127.441 86.5534C126.661 86.9298 126.082 87.6708 125.942 88.578L122.346 111.447L122.243 112.113C122.479 110.608 123.76 109.5 125.28 109.5H131.608C144.034 109.5 153.765 104.433 156.609 89.7736C156.694 89.3398 156.765 88.9175 156.829 88.5043C156.11 88.1209 155.331 87.793 154.491 87.5137C154.284 87.4445 154.07 87.3779 153.854 87.3132Z" fill="#22284F"/>
<path fill-rule="evenodd" clip-rule="evenodd" d="M125.943 88.5783C126.083 87.6711 126.662 86.9301 127.442 86.5563C127.798 86.385 128.191 86.2906 128.608 86.2906H145.511C147.514 86.2906 149.383 86.4225 151.089 86.6992C151.577 86.7775 152.05 86.868 152.513 86.9695C152.972 87.073 153.421 87.1887 153.855 87.3155C154.071 87.3801 154.285 87.4474 154.494 87.514C155.333 87.7933 156.113 88.1238 156.833 88.5046C157.679 83.0865 156.826 79.3975 153.908 76.0571C150.691 72.3791 144.886 70.8052 137.457 70.8052H115.891C114.373 70.8052 113.079 71.9128 112.844 73.4208L103.862 130.591C103.685 131.722 104.553 132.742 105.689 132.742H119.004L125.943 88.5783Z" fill="#28356A"/>
</g>
<defs>
<filter id="filter0_d" x="0.933594" y="0.483398" width="265.212" height="207.002" filterUnits="userSpaceOnUse" color-interpolation-filters="sRGB">
<feFlood flood-opacity="0" result="BackgroundImageFix"/>
<feColorMatrix in="SourceAlpha" type="matrix" values="0 0 0 0 0 0 0 0 0 0 0 0 0 0 0 0 0 0 127 0" result="hardAlpha"/>
<feOffset/>
<feGaussianBlur stdDeviation="20"/>
<feColorMatrix type="matrix" values="0 0 0 0 0 0 0 0 0 0 0 0 0 0 0 0 0 0 0.08 0"/>
<feBlend mode="normal" in2="BackgroundImageFix" result="effect1_dropShadow"/>
<feBlend mode="normal" in="SourceGraphic" in2="effect1_dropShadow" result="shape"/>
</filter>
</defs>
</svg>
